<svg xmlns="http://www.w3.org/2000/svg" xmlns:xlink="http://www.w3.org/1999/xlink" width="500" zoomAndPan="magnify" viewBox="0 0 375 374.999991" height="500" preserveAspectRatio="xMidYMid meet" version="1.0"><defs><g/><clipPath id="62e5d877b6"><path d="M 38 101.8125 L 337 101.8125 L 337 273.5625 L 38 273.5625 Z M 38 101.8125 " clip-rule="nonzero"/></clipPath></defs><g clip-path="url(#62e5d877b6)"><path fill="#ffffff" d="M 336.75 251.078125 C 336.753906 258.4375 336.214844 265.785156 335.144531 273.066406 L 273.722656 211.613281 L 254.636719 230.699219 L 191.472656 144.761719 L 129.746094 212.769531 L 115.816406 198.808594 L 39.816406 273.203125 C 38.746094 265.875 38.210938 258.480469 38.214844 251.078125 C 38.214844 168.664062 105.0625 101.808594 187.480469 101.808594 C 269.933594 101.808594 336.75 168.664062 336.75 251.078125 " fill-opacity="1" fill-rule="nonzero"/></g><path fill="#ffffff" d="M 295.949219 268.253906 L 261.398438 235.375 L 272.902344 223.421875 L 294.242188 241.792969 L 282.085938 241.792969 L 295.949219 268.253906 " fill-opacity="1" fill-rule="nonzero"/><path fill="#ffffff" d="M 141.457031 237.730469 L 124.386719 234.726562 L 112.027344 260.332031 L 103.492188 249.03125 L 75.734375 260.332031 L 94.71875 236.226562 L 107.316406 237.730469 L 99.835938 227.28125 L 114.792969 211.609375 L 141.457031 237.730469 " fill-opacity="1" fill-rule="nonzero"/><path fill="#ffffff" d="M 196.9375 219.804688 L 195.234375 224.722656 L 211.789062 261.183594 L 168.125 234.726562 L 173.242188 228.339844 L 163.238281 221.921875 L 170.273438 216.1875 L 177.308594 195.90625 L 195.675781 191.636719 L 181.164062 182.046875 L 190.316406 156.4375 L 260.304688 249.882812 L 220.1875 211.0625 L 224.695312 221.304688 L 222.132812 224.484375 L 227.871094 242.199219 L 196.9375 219.804688 " fill-opacity="1" fill-rule="nonzero"/><g fill="#ffffff" fill-opacity="1"><g transform="translate(97.018974, 193.124167)"><g><path d="M 6.640625 0 L 6.390625 -1.21875 L 6.328125 -1.21875 C 5.898438 -0.6875 5.472656 -0.320312 5.046875 -0.125 C 4.617188 0.0625 4.085938 0.15625 3.453125 0.15625 C 2.609375 0.15625 1.941406 -0.0625 1.453125 -0.5 C 0.972656 -0.9375 0.734375 -1.5625 0.734375 -2.375 C 0.734375 -4.101562 2.117188 -5.007812 4.890625 -5.09375 L 6.34375 -5.140625 L 6.34375 -5.671875 C 6.34375 -6.335938 6.195312 -6.832031 5.90625 -7.15625 C 5.613281 -7.476562 5.148438 -7.640625 4.515625 -7.640625 C 3.804688 -7.640625 3 -7.421875 2.09375 -6.984375 L 1.703125 -7.96875 C 2.117188 -8.195312 2.578125 -8.375 3.078125 -8.5 C 3.585938 -8.632812 4.09375 -8.703125 4.59375 -8.703125 C 5.613281 -8.703125 6.367188 -8.472656 6.859375 -8.015625 C 7.359375 -7.566406 7.609375 -6.84375 7.609375 -5.84375 L 7.609375 0 Z M 3.71875 -0.921875 C 4.519531 -0.921875 5.148438 -1.140625 5.609375 -1.578125 C 6.078125 -2.023438 6.3125 -2.644531 6.3125 -3.4375 L 6.3125 -4.21875 L 5.015625 -4.15625 C 3.984375 -4.125 3.238281 -3.960938 2.78125 -3.671875 C 2.320312 -3.390625 2.09375 -2.953125 2.09375 -2.359375 C 2.09375 -1.890625 2.234375 -1.53125 2.515625 -1.28125 C 2.804688 -1.039062 3.207031 -0.921875 3.71875 -0.921875 Z M 3.71875 -0.921875 "/></g></g></g></svg>